{
  "accessors": [
    {
      "bufferView": 1,
      "componentType": 5126,
      "count": 1406,
      "max": [
        1.1704299449920654,
        0.959879994392395,
        1.478219985961914
      ],
      "min": [
        -2.257689952850342,
        -0.959879994392395,
        -0.9833199977874756
      ],
      "type": "VEC3"
    },
    {
      "bufferView": 1,
      "byteOffset": 16872,
      "componentType": 5126,
      "count": 1406,
      "max": [
        0.9996731281280518,
        0.9999982714653015,
        0.9999976754188538
      ],
      "min": [
        -0.8834432363510132,
        -0.9999982714653015,
        -0.9995314478874207
      ],
      "type": "VEC3"
    },
    {
      "bufferView": 1,
      "byteOffset": 33744,
      "componentType": 5126,
      "count": 1406,
      "max": [
        1.0,
        1.0,
        1.0
      ],
      "min": [
        1.0,
        1.0,
        1.0
      ],
      "type": "VEC3"
    },
    {
      "bufferView": 0,
      "componentType": 5125,
      "count": 7296,
      "type": "SCALAR"
    },
    {
      "bufferView": 1,
      "byteOffset": 50616,
      "componentType": 5126,
      "count": 27879,
      "max": [
        0.8348299860954285,
        1.2012300491333008,
        1.0
      ],
      "min": [
        -0.8348299860954285,
        -1.2012300491333008,
        -1.0
      ],
      "type": "VEC3"
    },
    {
      "bufferView": 1,
      "byteOffset": 385164,
      "componentType": 5126,
      "count": 27879,
      "max": [
        1.0,
        0.9998735785484314,
        1.0
      ],
      "min": [
        -1.0,
        -0.9998735785484314,
        -1.0
      ],
      "type": "VEC3"
    },
    {
      "bufferView": 1,
      "byteOffset": 719712,
      "componentType": 5126,
      "count": 27879,
      "max": [
        1.0,
        1.0,
        1.0
      ],
      "min": [
        0.9960784316062927,
        0.9960784316062927,
        0.9960784316062927
      ],
      "type": "VEC3"
    },
    {
      "bufferView": 0,
      "byteOffset": 29184,
      "componentType": 5125,
      "count": 238920,
      "type": "SCALAR"
    },
    {
      "bufferView": 1,
      "byteOffset": 1054260,
      "componentType": 5126,
      "count": 13216,
      "max": [
        0.9812600016593933,
        1.0,
        0.8114299774169922
      ],
      "min": [
        -0.9776399731636047,
        -1.0,
        -1.0
      ],
      "type": "VEC3"
    },
    {
      "bufferView": 1,
      "byteOffset": 1212852,
      "componentType": 5126,
      "count": 13216,
      "max": [
        0.9999902844429016,
        1.0,
        1.0
      ],
      "min": [
        -0.9999925494194031,
        -1.0,
        -1.0
      ],
      "type": "VEC3"
    },
    {
      "bufferView": 1,
      "byteOffset": 1371444,
      "componentType": 5126,
      "count": 13216,
      "max": [
        1.0,
        1.0,
        1.0
      ],
      "min": [
        1.0,
        1.0,
        1.0
      ],
      "type": "VEC3"
    },
    {
      "bufferView": 0,
      "byteOffset": 984864,
      "componentType": 5125,
      "count": 76800,
      "type": "SCALAR"
    },
    {
      "bufferView": 1,
      "byteOffset": 1530036,
      "componentType": 5126,
      "count": 2160,
      "max": [
        0.9816700220108032,
        1.0,
        0.060270000249147415
      ],
      "min": [
        -0.9796299934387207,
        -1.0,
        -0.05648000165820122
      ],
      "type": "VEC3"
    },
    {
      "bufferView": 1,
      "byteOffset": 1555956,
      "componentType": 5126,
      "count": 2160,
      "max": [
        0.8835890889167786,
        1.0,
        1.0
      ],
      "min": [
        -0.8827404975891113,
        -1.0,
        -1.0
      ],
      "type": "VEC3"
    },
    {
      "bufferView": 1,
      "byteOffset": 1581876,
      "componentType": 5126,
      "count": 2160,
      "max": [
        1.0,
        1.0,
        1.0
      ],
      "min": [
        1.0,
        1.0,
        1.0
      ],
      "type": "VEC3"
    },
    {
      "bufferView": 0,
      "byteOffset": 1292064,
      "componentType": 5125,
      "count": 12288,
      "type": "SCALAR"
    },
    {
      "bufferView": 1,
      "byteOffset": 1607796,
      "componentType": 5126,
      "count": 2660,
      "max": [
        0.7043600082397461,
        0.9370499849319458,
        0.0798799991607666
      ],
      "min": [
        -0.7043600082397461,
        -0.9370499849319458,
        -0.08121000230312347
      ],
      "type": "VEC3"
    },
    {
      "bufferView": 1,
      "byteOffset": 1639716,
      "componentType": 5126,
      "count": 2660,
      "max": [
        1.0,
        1.0,
        1.0
      ],
      "min": [
        -1.0,
        -1.0,
        -1.0
      ],
      "type": "VEC3"
    },
    {
      "bufferView": 0,
      "byteOffset": 1341216,
      "componentType": 5125,
      "count": 15360,
      "type": "SCALAR"
    },
    {
      "bufferView": 1,
      "byteOffset": 1671636,
      "componentType": 5126,
      "count": 2562,
      "max": [
        0.985539972782135,
        1.0,
        0.07766000181436539
      ],
      "min": [
        -0.9835299849510193,
        -1.0,
        -0.05648000165820122
      ],
      "type": "VEC3"
    },
    {
      "bufferView": 1,
      "byteOffset": 1702380,
      "componentType": 5126,
      "count": 2562,
      "max": [
        0.9830615520477295,
        1.0,
        1.0
      ],
      "min": [
        -0.9849738478660583,
        -1.0,
        -1.0
      ],
      "type": "VEC3"
    },
    {
      "bufferView": 1,
      "byteOffset": 1733124,
      "componentType": 5126,
      "count": 2562,
      "max": [
        1.0,
        1.0,
        1.0
      ],
      "min": [
        1.0,
        1.0,
        1.0
      ],
      "type": "VEC3"
    },
    {
      "bufferView": 0,
      "byteOffset": 1402656,
      "componentType": 5125,
      "count": 15360,
      "type": "SCALAR"
    }
  ],
  "asset": {
    "extras": {
      "author": "coin911 (https://sketchfab.com/coin911)",
      "license": "CC-BY-4.0 (http://creativecommons.org/licenses/by/4.0/)",
      "source": "https://sketchfab.com/3d-models/sword-d6944e586ade41b9b75c8ca03d1e1400",
      "title": "Sword"
    },
    "generator": "Sketchfab-12.67.0",
    "version": "2.0"
  },
  "bufferViews": [
    {
      "buffer": 0,
      "byteLength": 1464096,
      "name": "floatBufferViews",
      "target": 34963
    },
    {
      "buffer": 0,
      "byteLength": 1763868,
      "byteOffset": 1464096,
      "byteStride": 12,
      "name": "floatBufferViews",
      "target": 34962
    }
  ],
  "buffers": [
    {
      "byteLength": 3227964,
      "uri": "scene.bin"
    }
  ],
  "materials": [
    {
      "doubleSided": true,
      "name": "material",
      "pbrMetallicRoughness": {
        "baseColorFactor": [
          0.9213560469775339,
          0.7370615415510635,
          0.10826800473503768,
          1.0
        ],
        "roughnessFactor": 0.0
      }
    },
    {
      "doubleSided": true,
      "name": "material_1",
      "pbrMetallicRoughness": {
        "baseColorFactor": [
          0.05825131094983059,
          0.05825131094983059,
          0.05825131094983059,
          1.0
        ],
        "roughnessFactor": 0.2578125
      }
    },
    {
      "doubleSided": true,
      "name": "material_2",
      "pbrMetallicRoughness": {
        "roughnessFactor": 0.0
      }
    }
  ],
  "meshes": [
    {
      "name": "Cube.001_0",
      "primitives": [
        {
          "attributes": {
            "COLOR_0": 2,
            "NORMAL": 1,
            "POSITION": 0
          },
          "indices": 3,
          "material": 2,
          "mode": 4
        }
      ]
    },
    {
      "name": "Cube.002_0",
      "primitives": [
        {
          "attributes": {
            "COLOR_0": 6,
            "NORMAL": 5,
            "POSITION": 4
          },
          "indices": 7,
          "material": 0,
          "mode": 4
        }
      ]
    },
    {
      "name": "Cube.003_0",
      "primitives": [
        {
          "attributes": {
            "COLOR_0": 10,
            "NORMAL": 9,
            "POSITION": 8
          },
          "indices": 11,
          "material": 1,
          "mode": 4
        }
      ]
    },
    {
      "name": "Cube.004_0",
      "primitives": [
        {
          "attributes": {
            "COLOR_0": 14,
            "NORMAL": 13,
            "POSITION": 12
          },
          "indices": 15,
          "material": 0,
          "mode": 4
        }
      ]
    },
    {
      "name": "Cube.005_0",
      "primitives": [
        {
          "attributes": {
            "NORMAL": 17,
            "POSITION": 16
          },
          "indices": 18,
          "material": 0,
          "mode": 4
        }
      ]
    },
    {
      "name": "Cube.010_0",
      "primitives": [
        {
          "attributes": {
            "COLOR_0": 21,
            "NORMAL": 20,
            "POSITION": 19
          },
          "indices": 22,
          "material": 0,
          "mode": 4
        }
      ]
    }
  ],
  "nodes": [
    {
      "children": [
        1
      ],
      "matrix": [
        1.0,
        0.0,
        0.0,
        0.0,
        0.0,
        2.220446049250313e-16,
        -1.0,
        0.0,
        0.0,
        1.0,
        2.220446049250313e-16,
        0.0,
        0.0,
        0.0,
        0.0,
        1.0
      ],
      "name": "Sketchfab_model"
    },
    {
      "children": [
        2,
        4,
        6,
        8,
        10,
        12
      ],
      "name": "Root"
    },
    {
      "children": [
        3
      ],
      "matrix": [
        0.18838000000000002,
        -0.0,
        0.006070000000000002,
        0.0,
        0.0,
        0.03437000000000001,
        0.0,
        0.0,
        -0.1391,
        0.0,
        4.318,
        0.0,
        0.13443000000000002,
        0.0,
        0.0,
        1.0
      ],
      "name": "Cube.001"
    },
    {
      "mesh": 0,
      "name": "Cube.001_0"
    },
    {
      "children": [
        5
      ],
      "matrix": [
        0.5551400000000001,
        0.0,
        -0.034460000000000005,
        0.0,
        -0.0,
        0.27544,
        0.0,
        0.0,
        0.0038200000000000013,
        0.0,
        0.061510000000000016,
        0.0,
        -0.06154000000000001,
        0.0,
        4.3388,
        1.0
      ],
      "name": "Cube.002"
    },
    {
      "mesh": 1,
      "name": "Cube.002_0"
    },
    {
      "children": [
        7
      ],
      "matrix": [
        0.17532,
        0.0,
        -0.010130000000000002,
        0.0,
        -0.0,
        0.06836000000000002,
        0.0,
        0.0,
        0.07021000000000001,
        0.0,
        1.2152999999999998,
        0.0,
        0.009230000000000004,
        0.0,
        5.608099999999999,
        1.0
      ],
      "name": "Cube.003"
    },
    {
      "mesh": 2,
      "name": "Cube.003_0"
    },
    {
      "children": [
        9
      ],
      "matrix": [
        0.20686000000000002,
        0.0,
        -0.011950000000000002,
        0.0,
        -0.0,
        0.07874000000000002,
        0.0,
        0.0,
        0.08087000000000001,
        0.0,
        1.39983,
        0.0,
        -0.057810000000000014,
        0.0,
        4.46702,
        1.0
      ],
      "name": "Cube.004"
    },
    {
      "mesh": 3,
      "name": "Cube.004_0"
    },
    {
      "children": [
        11
      ],
      "matrix": [
        0.20013,
        0.0,
        -0.011560000000000003,
        0.0,
        -0.0,
        0.07323000000000002,
        0.0,
        0.0,
        0.13273000000000001,
        0.0,
        2.29764,
        0.0,
        0.07507000000000001,
        0.0,
        6.690109999999999,
        1.0
      ],
      "name": "Cube.005"
    },
    {
      "mesh": 4,
      "name": "Cube.005_0"
    },
    {
      "children": [
        13
      ],
      "matrix": [
        -0.20686000000000002,
        -0.0,
        0.011950000000000002,
        0.0,
        0.0,
        0.07874000000000002,
        0.0,
        0.0,
        -0.08087000000000001,
        0.0,
        -1.39983,
        0.0,
        -0.07056000000000001,
        0.0,
        4.2163200000000005,
        1.0
      ],
      "name": "Cube.010"
    },
    {
      "mesh": 5,
      "name": "Cube.010_0"
    }
  ],
  "scene": 0,
  "scenes": [
    {
      "name": "Sketchfab_Scene",
      "nodes": [
        0
      ]
    }
  ]
}
