# Blender v2.79 (sub 0) OBJ File: 'CarModels.blend'
# www.blender.org
o Caucho_Cube.003
v -0.067609 0.000290 0.835007
v -0.331504 0.005135 0.816180
v -0.469038 0.007621 0.657402
v -0.421273 0.006757 0.476845
v -0.143410 0.000802 0.296599
v 0.040674 -0.001261 0.296599
v 0.275227 -0.005832 0.476845
v 0.322991 -0.006695 0.657402
v 0.185457 -0.004209 0.816180
v -0.061844 0.494358 0.675372
v -0.330526 0.495746 0.660142
v -0.468251 0.402888 0.531687
v -0.420702 0.293604 0.385614
v -0.140075 0.216790 0.239792
v 0.042226 0.214783 0.239792
v 0.275798 0.281015 0.385614
v 0.323779 0.388573 0.531687
v 0.186434 0.486402 0.660142
v -0.058280 0.799709 0.257444
v -0.329923 0.798961 0.251627
v -0.467764 0.647177 0.202561
v -0.420348 0.470885 0.146766
v -0.138013 0.350277 0.091067
v 0.043185 0.348306 0.091067
v 0.276151 0.458296 0.146766
v 0.324265 0.632861 0.202561
v 0.187038 0.789617 0.251627
v -0.058280 0.799709 -0.259143
v -0.329923 0.798961 -0.253326
v -0.467764 0.647177 -0.204260
v -0.420348 0.470885 -0.148466
v -0.138013 0.350277 -0.092766
v 0.043185 0.348306 -0.092766
v 0.276151 0.458296 -0.148466
v 0.324265 0.632861 -0.204260
v 0.187038 0.789617 -0.253326
v -0.061844 0.494358 -0.677071
v -0.330526 0.495746 -0.661841
v -0.468251 0.402888 -0.533386
v -0.420702 0.293604 -0.387313
v -0.140075 0.216790 -0.241491
v 0.042226 0.214783 -0.241491
v 0.275798 0.281015 -0.387313
v 0.323779 0.388572 -0.533386
v 0.186434 0.486402 -0.661841
v -0.067609 0.000290 -0.836705
v -0.331504 0.005135 -0.817880
v -0.469038 0.007621 -0.659101
v -0.421273 0.006758 -0.478544
v -0.143410 0.000803 -0.298298
v 0.040674 -0.001261 -0.298298
v 0.275227 -0.005832 -0.478544
v 0.322991 -0.006695 -0.659101
v 0.185457 -0.004209 -0.817880
v -0.073376 -0.493779 -0.677071
v -0.332481 -0.485476 -0.661841
v -0.469825 -0.387646 -0.533386
v -0.421844 -0.280089 -0.387313
v -0.146746 -0.215185 -0.241491
v 0.039122 -0.217305 -0.241491
v 0.274655 -0.292678 -0.387313
v 0.322205 -0.401962 -0.533386
v 0.184480 -0.494820 -0.661841
v -0.076939 -0.799130 -0.259143
v -0.333085 -0.788691 -0.253326
v -0.470312 -0.631936 -0.204260
v -0.422198 -0.457370 -0.148466
v -0.148807 -0.348672 -0.092766
v 0.038162 -0.350828 -0.092766
v 0.274302 -0.469960 -0.148466
v 0.321718 -0.646252 -0.204260
v 0.183876 -0.798035 -0.253326
v -0.076939 -0.799130 0.257444
v -0.333085 -0.788691 0.251627
v -0.470312 -0.631936 0.202561
v -0.422198 -0.457370 0.146766
v -0.148808 -0.348672 0.091067
v 0.038162 -0.350828 0.091067
v 0.274302 -0.469960 0.146766
v 0.321718 -0.646252 0.202561
v 0.183875 -0.798035 0.251627
v -0.073376 -0.493779 0.675371
v -0.332481 -0.485477 0.660142
v -0.469826 -0.387647 0.531687
v -0.421845 -0.280090 0.385613
v -0.146746 -0.215185 0.239792
v 0.039121 -0.217305 0.239792
v 0.274655 -0.292679 0.385613
v 0.322204 -0.401963 0.531687
v 0.184480 -0.494821 0.660142
v 0.419481 -0.007976 0.002464
v 0.357835 -0.159894 -0.168870
v 0.199246 -0.267479 -0.294296
v -0.013795 -0.301903 -0.340204
v 0.354798 -0.254905 -0.062980
v 0.193986 -0.432043 -0.110888
v -0.019869 -0.491925 -0.128424
v 0.354798 -0.254905 0.067907
v 0.193986 -0.432043 0.115816
v -0.019869 -0.491926 0.133351
v 0.357835 -0.159894 0.173798
v 0.199246 -0.267479 0.299223
v -0.013795 -0.301903 0.345132
v 0.362749 -0.006162 0.214244
v 0.207757 -0.001208 0.369278
v -0.003967 0.005560 0.426025
v 0.367664 0.147569 0.173798
v 0.216269 0.265063 0.299223
v 0.005862 0.313023 0.345132
v 0.370701 0.242580 0.067907
v 0.221529 0.429627 0.115816
v 0.011936 0.503046 0.133351
v 0.370701 0.242581 -0.062980
v 0.221529 0.429627 -0.110888
v 0.011936 0.503046 -0.128424
v 0.367664 0.147569 -0.168870
v 0.216269 0.265063 -0.294296
v 0.005862 0.313023 -0.340204
v 0.362749 -0.006162 -0.209317
v 0.207757 -0.001208 -0.364351
v -0.003967 0.005560 -0.421097
vt 0.404678 0.289978
vt 0.335983 0.328978
vt 0.336747 0.287500
vt 0.404781 0.334866
vt 0.336266 0.369180
vt 0.408295 0.415433
vt 0.337174 0.416327
vt 0.343033 0.532921
vt 0.415376 0.528266
vt 0.349782 0.603069
vt 0.364080 0.066392
vt 0.415533 0.169970
vt 0.347206 0.164093
vt 0.341455 0.208969
vt 0.409875 0.210847
vt 0.338388 0.248095
vt 0.488134 0.291648
vt 0.487337 0.381287
vt 0.406255 0.372854
vt 0.487268 0.421295
vt 0.486811 0.528465
vt 0.418729 0.597190
vt 0.434121 0.078598
vt 0.493690 0.170391
vt 0.490138 0.207442
vt 0.406675 0.248643
vt 0.580699 0.345012
vt 0.487158 0.342518
vt 0.577386 0.383090
vt 0.557397 0.529502
vt 0.485672 0.594742
vt 0.567827 0.079795
vt 0.502136 0.084957
vt 0.580882 0.205876
vt 0.488371 0.245519
vt 0.582479 0.293271
vt 0.666407 0.342539
vt 0.661156 0.382401
vt 0.572161 0.421192
vt 0.629707 0.539474
vt 0.616469 0.608262
vt 0.550712 0.597768
vt 0.637207 0.072426
vt 0.578362 0.165776
vt 0.665761 0.209510
vt 0.668942 0.250162
vt 0.582204 0.246644
vt 0.669656 0.294669
vt 0.742186 0.342365
vt 0.737077 0.386803
vt 0.653709 0.426239
vt 0.702015 0.555536
vt 0.682970 0.624944
vt 0.707177 0.058019
vt 0.659401 0.166088
vt 0.740811 0.206636
vt 0.744369 0.250678
vt 0.832179 0.295968
vt 0.744542 0.295533
vt 0.819827 0.406133
vt 0.808260 0.457753
vt 0.728955 0.437394
vt 0.749576 0.646822
vt 0.808840 0.136513
vt 0.732625 0.157548
vt 0.829666 0.236094
vt 0.986196 0.296030
vt 0.828242 0.356032
vt 0.930690 0.459761
vt 0.896095 0.505297
vt 0.774952 0.575707
vt 0.843867 0.604920
vt 0.775394 0.037769
vt 0.894129 0.084512
vt 0.822150 0.186937
vt 0.931880 0.130174
vt 0.160056 0.276568
vt 0.000113 0.357526
vt 0.000114 0.259966
vt 0.165881 0.391439
vt 0.030767 0.427299
vt 0.172322 0.439432
vt 0.067864 0.476896
vt 0.194071 0.552529
vt 0.125279 0.574868
vt 0.212202 0.625539
vt 0.144133 0.644082
vt 0.172221 0.001370
vt 0.197062 0.121853
vt 0.108273 0.073944
vt 0.067515 0.110762
vt 0.181700 0.165784
vt 0.026045 0.164010
vt 0.169567 0.212693
vt 0.262466 0.332136
vt 0.160774 0.340853
vt 0.262363 0.375182
vt 0.269003 0.539000
vt 0.280667 0.611634
vt 0.294038 0.055607
vt 0.228612 0.034988
vt 0.271113 0.195263
vt 0.267106 0.236272
vt 0.264170 0.283824
vt 0.262746 0.422073
vt 0.277824 0.150973
vt 0.674945 0.730300
vt 0.559086 0.714635
vt 0.600707 0.648152
vt 0.553398 0.781234
vt 0.511414 0.803465
vt 0.532313 0.760802
vt 0.602194 0.759621
vt 0.497768 0.703579
vt 0.492363 0.625329
vt 0.503244 0.756666
vt 0.391296 0.670548
vt 0.477296 0.770406
vt 0.441663 0.730677
vt 0.464380 0.796773
vt 0.412200 0.785577
vt 0.336109 0.766536
vt 0.420633 0.847310
vt 0.347883 0.876631
vt 0.469429 0.825697
vt 0.490515 0.846129
vt 0.463742 0.892295
vt 0.422120 0.958778
vt 0.519584 0.850265
vt 0.525060 0.903351
vt 0.530464 0.981601
vt 0.581165 0.876254
vt 0.631532 0.936383
vt 0.545531 0.836525
vt 0.610628 0.821354
vt 0.686718 0.840394
vt 0.558447 0.810157
vt 0.966901 0.396404
vt 0.817056 0.673751
vt 0.836410 0.000113
vt 0.967925 0.192616
vn -0.0621 0.3075 0.9495
vn -0.7381 0.2058 0.6425
vn -0.9638 -0.0791 -0.2546
vn -0.5299 -0.2561 -0.8085
vn -0.0029 -0.2543 -0.9671
vn 0.5875 -0.2463 -0.7708
vn 0.9633 -0.0831 -0.2552
vn 0.7419 0.2019 0.6394
vn 0.0760 0.3058 0.9491
vn -0.0292 0.8072 0.5895
vn -0.7390 0.5415 0.4008
vn -0.9650 -0.2098 -0.1572
vn -0.4681 -0.7093 -0.5271
vn -0.0082 -0.7441 -0.6680
vn 0.5142 -0.6891 -0.5107
vn 0.9637 -0.2151 -0.1582
vn 0.7488 0.5317 0.3957
vn 0.0620 0.8056 0.5892
vn -0.0028 1.0000 -0.0000
vn -0.7403 0.6723 0.0000
vn -0.9657 -0.2597 0.0000
vn -0.3928 -0.9196 0.0000
vn -0.0109 -0.9999 0.0000
vn 0.4269 -0.9043 0.0000
vn 0.9641 -0.2657 0.0000
vn 0.7524 0.6587 0.0000
vn 0.0411 0.9992 0.0000
vn -0.0150 0.8029 -0.5959
vn -0.7390 0.5415 -0.4008
vn -0.9650 -0.2098 0.1572
vn -0.4096 -0.6761 0.6125
vn -0.0081 -0.7441 0.6681
vn 0.4553 -0.6640 0.5932
vn 0.9637 -0.2151 0.1582
vn 0.7488 0.5317 -0.3957
vn 0.0471 0.8021 -0.5954
vn -0.0524 0.3028 -0.9516
vn -0.7381 0.2058 -0.6425
vn -0.9638 -0.0791 0.2546
vn -0.4959 -0.2137 0.8417
vn -0.0028 -0.2543 0.9671
vn 0.5603 -0.2144 0.8001
vn 0.9633 -0.0831 0.2552
vn 0.7419 0.2019 -0.6394
vn 0.0680 0.3023 -0.9508
vn -0.0733 -0.3058 -0.9493
vn -0.7419 -0.2019 -0.6394
vn -0.9633 0.0831 0.2552
vn -0.5216 0.2595 0.8127
vn 0.0029 0.2543 0.9671
vn 0.5941 0.2427 0.7669
vn 0.9638 0.0791 0.2546
vn 0.7381 -0.2058 -0.6425
vn 0.0652 -0.3075 -0.9493
vn -0.0604 -0.8057 -0.5892
vn -0.7488 -0.5317 -0.3957
vn -0.9637 0.2151 0.1582
vn -0.4509 0.7170 0.5315
vn 0.0085 0.7441 0.6680
vn 0.5307 0.6802 0.5056
vn 0.9650 0.2098 0.1572
vn 0.7390 -0.5415 -0.4008
vn 0.0316 -0.8072 -0.5895
vn -0.0407 -0.9992 0.0000
vn -0.7524 -0.6587 0.0000
vn -0.9641 0.2657 0.0000
vn -0.3695 0.9292 -0.0000
vn 0.0115 0.9999 0.0000
vn 0.4504 0.8928 0.0000
vn 0.9657 0.2597 0.0000
vn 0.7403 -0.6723 0.0000
vn 0.0042 -1.0000 0.0000
vn -0.0462 -0.8021 0.5954
vn -0.7488 -0.5317 0.3957
vn -0.9637 0.2151 -0.1582
vn -0.3969 0.6858 -0.6100
vn 0.0086 0.7441 -0.6681
vn 0.4701 0.6553 -0.5913
vn 0.9650 0.2098 -0.1572
vn 0.7390 -0.5415 0.4008
vn 0.0167 -0.8029 0.5959
vn -0.0656 -0.3023 0.9509
vn -0.7419 -0.2019 0.6394
vn -0.9633 0.0831 -0.2552
vn -0.4974 0.2278 -0.8370
vn 0.0029 0.2543 -0.9671
vn 0.5620 0.2066 -0.8009
vn 0.9638 0.0791 -0.2546
vn 0.7381 -0.2058 0.6425
vn 0.0550 -0.3027 0.9515
vn 0.2428 -0.2541 -0.9362
vn 0.9610 -0.0987 -0.2583
vn 0.6889 -0.2049 -0.6953
vn 0.2552 -0.7233 -0.6417
vn 0.9644 -0.2100 -0.1608
vn 0.7174 -0.5286 -0.4537
vn 0.2696 -0.9630 -0.0000
vn 0.9674 -0.2534 0.0000
vn 0.7404 -0.6722 0.0000
vn 0.9644 -0.2100 0.1608
vn 0.7174 -0.5286 0.4537
vn 0.2552 -0.7233 0.6417
vn 0.6889 -0.2049 0.6953
vn 0.2428 -0.2541 0.9362
vn 0.9610 -0.0987 0.2583
vn 0.7006 0.1605 0.6953
vn 0.2585 0.2381 0.9362
vn 0.9654 0.0371 0.2583
vn 0.7497 0.4817 0.4537
vn 0.3008 0.7055 0.6417
vn 0.9758 0.1480 0.1608
vn 0.7818 0.6235 0.0000
vn 0.3306 0.9438 0.0000
vn 0.9816 0.1911 0.0000
vn 0.7497 0.4817 -0.4537
vn 0.3008 0.7055 -0.6417
vn 0.9758 0.1480 -0.1608
vn 0.2585 0.2381 -0.9362
vn 0.9654 0.0371 -0.2583
vn 0.7006 0.1605 -0.6953
vn -0.0524 0.3028 0.9516
vn -0.4959 -0.2137 -0.8417
vn -0.0028 -0.2543 -0.9671
vn 0.5603 -0.2144 -0.8001
vn 0.0680 0.3023 0.9508
vn -0.0150 0.8029 0.5959
vn -0.4096 -0.6761 -0.6125
vn -0.0081 -0.7441 -0.6681
vn 0.4553 -0.6640 -0.5932
vn 0.0471 0.8021 0.5954
vn -0.0292 0.8072 -0.5895
vn -0.4681 -0.7093 0.5271
vn -0.0082 -0.7441 0.6680
vn 0.5142 -0.6891 0.5107
vn 0.0620 0.8056 -0.5892
vn -0.0621 0.3075 -0.9495
vn -0.5299 -0.2561 0.8085
vn -0.0029 -0.2543 0.9671
vn 0.5875 -0.2463 0.7708
vn 0.0760 0.3058 -0.9491
vn -0.0656 -0.3023 -0.9509
vn -0.4974 0.2278 0.8370
vn 0.5620 0.2066 0.8009
vn 0.0550 -0.3027 -0.9515
vn -0.0462 -0.8021 -0.5954
vn -0.3969 0.6858 0.6100
vn 0.0086 0.7441 0.6681
vn 0.4701 0.6553 0.5913
vn 0.0167 -0.8029 -0.5959
vn -0.0604 -0.8057 0.5892
vn -0.4509 0.7170 -0.5315
vn 0.0085 0.7441 -0.6680
vn 0.5307 0.6802 -0.5056
vn 0.0316 -0.8072 0.5895
vn -0.0733 -0.3058 0.9493
vn -0.5216 0.2595 -0.8127
vn 0.5941 0.2427 -0.7669
vn 0.7381 -0.2058 0.6426
vn 0.0652 -0.3075 0.9493
vn 0.2551 -0.7233 -0.6417
vn 0.2551 -0.7233 0.6417
s off
f 10/1/1 2/2/1 1/3/1
f 11/4/2 3/5/2 2/2/2
f 3/5/3 13/6/3 4/7/3
f 13/6/4 5/8/4 4/7/4
f 14/9/5 6/10/5 5/8/5
f 6/11/6 16/12/6 7/13/6
f 16/12/7 8/14/7 7/13/7
f 17/15/8 9/16/8 8/14/8
f 9/16/9 10/1/9 1/3/9
f 19/17/10 11/4/10 10/1/10
f 11/4/11 21/18/11 12/19/11
f 12/19/12 22/20/12 13/6/12
f 22/20/13 14/9/13 13/6/13
f 23/21/14 15/22/14 14/9/14
f 15/23/15 25/24/15 16/12/15
f 25/24/16 17/15/16 16/12/16
f 26/25/17 18/26/17 17/15/17
f 18/26/18 19/17/18 10/1/18
f 19/17/19 29/27/19 20/28/19
f 20/28/20 30/29/20 21/18/20
f 30/29/21 22/20/21 21/18/21
f 22/20/22 32/30/22 23/21/22
f 32/30/23 24/31/23 23/21/23
f 33/32/24 25/24/24 24/33/24
f 25/24/25 35/34/25 26/25/25
f 35/34/26 27/35/26 26/25/26
f 27/35/27 28/36/27 19/17/27
f 28/36/28 38/37/28 29/27/28
f 38/37/29 30/29/29 29/27/29
f 39/38/30 31/39/30 30/29/30
f 31/39/31 41/40/31 32/30/31
f 32/30/32 42/41/32 33/42/32
f 42/43/33 34/44/33 33/32/33
f 34/44/34 44/45/34 35/34/34
f 35/34/35 45/46/35 36/47/35
f 45/46/36 28/36/36 36/47/36
f 37/48/37 47/49/37 38/37/37
f 38/37/38 48/50/38 39/38/38
f 48/50/39 40/51/39 39/38/39
f 40/51/40 50/52/40 41/40/40
f 41/40/41 51/53/41 42/41/41
f 51/54/42 43/55/42 42/43/42
f 43/55/43 53/56/43 44/45/43
f 44/45/44 54/57/44 45/46/44
f 54/57/45 37/48/45 45/46/45
f 55/58/46 47/49/46 46/59/46
f 47/49/47 57/60/47 48/50/47
f 48/50/48 58/61/48 49/62/48
f 58/61/49 50/52/49 49/62/49
f 50/52/50 60/63/50 51/53/50
f 51/54/51 61/64/51 52/65/51
f 61/64/52 53/56/52 52/65/52
f 53/56/53 63/66/53 54/57/53
f 54/57/54 55/58/54 46/59/54
f 64/67/55 56/68/55 55/58/55
f 56/68/56 66/69/56 57/60/56
f 57/60/57 67/70/57 58/61/57
f 67/70/58 59/71/58 58/61/58
f 68/72/59 60/63/59 59/71/59
f 60/73/60 70/74/60 61/64/60
f 70/74/61 62/75/61 61/64/61
f 71/76/62 63/66/62 62/75/62
f 63/66/63 64/67/63 55/58/63
f 73/77/64 65/78/64 64/79/64
f 65/78/65 75/80/65 66/81/65
f 66/81/66 76/82/66 67/83/66
f 67/83/67 77/84/67 68/85/67
f 68/85/68 78/86/68 69/87/68
f 69/88/69 79/89/69 70/90/69
f 79/89/70 71/91/70 70/90/70
f 80/92/71 72/93/71 71/91/71
f 81/94/72 64/79/72 72/93/72
f 73/77/73 83/95/73 74/96/73
f 83/95/74 75/80/74 74/96/74
f 84/97/75 76/82/75 75/80/75
f 76/82/76 86/98/76 77/84/76
f 77/84/77 87/99/77 78/86/77
f 87/100/78 79/89/78 78/101/78
f 79/89/79 89/102/79 80/92/79
f 80/92/80 90/103/80 81/94/80
f 90/103/81 73/77/81 81/94/81
f 82/104/82 2/2/82 83/95/82
f 2/2/83 84/97/83 83/95/83
f 3/5/84 85/105/84 84/97/84
f 85/105/85 5/8/85 86/98/85
f 5/8/86 87/99/86 86/98/86
f 6/11/87 88/106/87 87/100/87
f 88/106/88 8/14/88 89/102/88
f 8/14/89 90/103/89 89/102/89
f 9/16/90 82/104/90 90/103/90
f 121/107/91 93/108/91 94/109/91
f 119/110/92 91/111/92 92/112/92
f 120/113/93 92/112/93 93/108/93
f 94/109/94 96/114/94 97/115/94
f 92/112/95 91/111/95 95/116/95
f 93/108/96 95/116/96 96/114/96
f 96/114/97 100/117/97 97/115/97
f 95/116/98 91/111/98 98/118/98
f 96/114/99 98/118/99 99/119/99
f 98/118/100 91/111/100 101/120/100
f 98/118/101 102/121/101 99/119/101
f 99/119/102 103/122/102 100/117/102
f 101/120/103 105/123/103 102/121/103
f 102/121/104 106/124/104 103/122/104
f 101/120/105 91/111/105 104/125/105
f 105/123/106 107/126/106 108/127/106
f 106/124/107 108/127/107 109/128/107
f 104/125/108 91/111/108 107/126/108
f 108/127/109 110/129/109 111/130/109
f 109/128/110 111/130/110 112/131/110
f 107/126/111 91/111/111 110/129/111
f 110/129/112 114/132/112 111/130/112
f 112/131/113 114/132/113 115/133/113
f 110/129/114 91/111/114 113/134/114
f 113/134/115 117/135/115 114/132/115
f 114/132/116 118/136/116 115/133/116
f 113/134/117 91/111/117 116/137/117
f 117/135/118 121/107/118 118/136/118
f 116/137/119 91/111/119 119/110/119
f 116/137/120 120/113/120 117/135/120
f 10/1/121 11/4/121 2/2/121
f 11/4/2 12/19/2 3/5/2
f 3/5/3 12/19/3 13/6/3
f 13/6/122 14/9/122 5/8/122
f 14/9/123 15/22/123 6/10/123
f 6/11/124 15/23/124 16/12/124
f 16/12/7 17/15/7 8/14/7
f 17/15/8 18/26/8 9/16/8
f 9/16/125 18/26/125 10/1/125
f 19/17/126 20/28/126 11/4/126
f 11/4/11 20/28/11 21/18/11
f 12/19/12 21/18/12 22/20/12
f 22/20/127 23/21/127 14/9/127
f 23/21/128 24/31/128 15/22/128
f 15/23/129 24/33/129 25/24/129
f 25/24/16 26/25/16 17/15/16
f 26/25/17 27/35/17 18/26/17
f 18/26/130 27/35/130 19/17/130
f 19/17/19 28/36/19 29/27/19
f 20/28/20 29/27/20 30/29/20
f 30/29/21 31/39/21 22/20/21
f 22/20/22 31/39/22 32/30/22
f 32/30/23 33/42/23 24/31/23
f 33/32/24 34/44/24 25/24/24
f 25/24/25 34/44/25 35/34/25
f 35/34/26 36/47/26 27/35/26
f 27/35/27 36/47/27 28/36/27
f 28/36/131 37/48/131 38/37/131
f 38/37/29 39/38/29 30/29/29
f 39/38/30 40/51/30 31/39/30
f 31/39/132 40/51/132 41/40/132
f 32/30/133 41/40/133 42/41/133
f 42/43/134 43/55/134 34/44/134
f 34/44/34 43/55/34 44/45/34
f 35/34/35 44/45/35 45/46/35
f 45/46/135 37/48/135 28/36/135
f 37/48/136 46/59/136 47/49/136
f 38/37/38 47/49/38 48/50/38
f 48/50/39 49/62/39 40/51/39
f 40/51/137 49/62/137 50/52/137
f 41/40/138 50/52/138 51/53/138
f 51/54/139 52/65/139 43/55/139
f 43/55/43 52/65/43 53/56/43
f 44/45/44 53/56/44 54/57/44
f 54/57/140 46/59/140 37/48/140
f 55/58/141 56/68/141 47/49/141
f 47/49/47 56/68/47 57/60/47
f 48/50/48 57/60/48 58/61/48
f 58/61/142 59/71/142 50/52/142
f 50/52/50 59/71/50 60/63/50
f 51/54/143 60/73/143 61/64/143
f 61/64/52 62/75/52 53/56/52
f 53/56/53 62/75/53 63/66/53
f 54/57/144 63/66/144 55/58/144
f 64/67/145 65/138/145 56/68/145
f 56/68/56 65/138/56 66/69/56
f 57/60/57 66/69/57 67/70/57
f 67/70/146 68/72/146 59/71/146
f 68/72/147 69/139/147 60/63/147
f 60/73/148 69/140/148 70/74/148
f 70/74/61 71/76/61 62/75/61
f 71/76/62 72/141/62 63/66/62
f 63/66/149 72/141/149 64/67/149
f 73/77/64 74/96/64 65/78/64
f 65/78/65 74/96/65 75/80/65
f 66/81/66 75/80/66 76/82/66
f 67/83/67 76/82/67 77/84/67
f 68/85/68 77/84/68 78/86/68
f 69/88/69 78/101/69 79/89/69
f 79/89/70 80/92/70 71/91/70
f 80/92/71 81/94/71 72/93/71
f 81/94/72 73/77/72 64/79/72
f 73/77/150 82/104/150 83/95/150
f 83/95/74 84/97/74 75/80/74
f 84/97/75 85/105/75 76/82/75
f 76/82/151 85/105/151 86/98/151
f 77/84/152 86/98/152 87/99/152
f 87/100/153 88/106/153 79/89/153
f 79/89/79 88/106/79 89/102/79
f 80/92/80 89/102/80 90/103/80
f 90/103/154 82/104/154 73/77/154
f 82/104/155 1/3/155 2/2/155
f 2/2/83 3/5/83 84/97/83
f 3/5/84 4/7/84 85/105/84
f 85/105/156 4/7/156 5/8/156
f 5/8/86 6/10/86 87/99/86
f 6/11/157 7/13/157 88/106/157
f 88/106/88 7/13/88 8/14/88
f 8/14/158 9/16/158 90/103/158
f 9/16/159 1/3/159 82/104/159
f 121/107/91 120/113/91 93/108/91
f 120/113/93 119/110/93 92/112/93
f 94/109/160 93/108/160 96/114/160
f 93/108/96 92/112/96 95/116/96
f 96/114/97 99/119/97 100/117/97
f 96/114/99 95/116/99 98/118/99
f 98/118/101 101/120/101 102/121/101
f 99/119/161 102/121/161 103/122/161
f 101/120/103 104/125/103 105/123/103
f 102/121/104 105/123/104 106/124/104
f 105/123/106 104/125/106 107/126/106
f 106/124/107 105/123/107 108/127/107
f 108/127/109 107/126/109 110/129/109
f 109/128/110 108/127/110 111/130/110
f 110/129/112 113/134/112 114/132/112
f 112/131/113 111/130/113 114/132/113
f 113/134/115 116/137/115 117/135/115
f 114/132/116 117/135/116 118/136/116
f 117/135/118 120/113/118 121/107/118
f 116/137/120 119/110/120 120/113/120
