# Blender 3.4.1
# www.blender.org
mtllib skybox.mtl
o Plane.001
v -16.256382 32.640068 16.591705
v -16.372078 -0.542940 16.591705
v -16.256382 32.640068 -16.591705
v -16.372078 -0.542940 -16.591705
vn 1.0000 -0.0035 -0.0000
vt 0.000000 0.000000
vt 1.000000 0.000000
vt 0.000000 1.000000
vt 1.000000 1.000000
s 0
g off
f 2/2/1 3/3/1 1/1/1
f 2/2/1 4/4/1 3/3/1
o Plane.002
v 16.018969 32.640068 -16.590765
v 16.134659 -0.542940 -16.591658
v 16.275242 32.640068 16.591658
v 16.390932 -0.542940 16.590765
vn -1.0000 -0.0035 0.0077
vt 0.000000 0.000000
vt 1.000000 0.000000
vt 0.000000 1.000000
vt 1.000000 1.000000
s 0
g off
f 6/6/2 7/7/2 5/5/2
f 6/6/2 8/8/2 7/7/2
o Plane.003
v 16.699757 32.640068 16.629147
v 16.697392 -0.542940 16.744818
v -16.476723 32.640068 15.950922
v -16.479088 -0.542940 16.066593
vn 0.0204 -0.0035 -0.9998
vt 0.000000 0.000000
vt 1.000000 0.000000
vt 0.000000 1.000000
vt 1.000000 1.000000
s 0
g off
f 10/10/3 11/11/3 9/9/3
f 10/10/3 12/12/3 11/11/3
o Plane.004
v -16.481466 32.640068 -16.086527
v -16.480967 -0.542940 -16.202221
v 16.701635 32.640068 -15.942998
v 16.702135 -0.542940 -16.058691
vn -0.0043 -0.0035 1.0000
vt 0.000000 0.000000
vt 1.000000 0.000000
vt 0.000000 1.000000
vt 1.000000 1.000000
s 0
g off
f 14/14/4 15/15/4 13/13/4
f 14/14/4 16/16/4 15/15/4
o Plane.005
v -16.492235 32.707264 16.492235
v 16.492235 32.707264 16.492235
v -16.492235 32.707272 -16.492235
v 16.492235 32.707272 -16.492235
vn -0.0000 1.0000 -0.0000
vt 0.000000 0.000000
vt 1.000000 0.000000
vt 0.000000 1.000000
vt 1.000000 1.000000
s 0
g off
f 18/18/5 19/19/5 17/17/5
f 18/18/5 20/20/5 19/19/5
